<?xml version="1.0" encoding="UTF-8" standalone="no"?>
<!-- Generator: Adobe Illustrator 22.1.0, SVG Export Plug-In . SVG Version: 6.00 Build 0)  -->

<svg
   version="1.1"
   id="Layer_1"
   x="0px"
   y="0px"
   viewBox="0 0 40000 15625"
   xml:space="preserve"
   sodipodi:docname="15_taipei.svg"
   width="40000"
   height="15625"
   xmlns:inkscape="http://www.inkscape.org/namespaces/inkscape"
   xmlns:sodipodi="http://sodipodi.sourceforge.net/DTD/sodipodi-0.dtd"
   xmlns="http://www.w3.org/2000/svg"
   xmlns:svg="http://www.w3.org/2000/svg"><defs
   id="defs74" /><sodipodi:namedview
   id="namedview74"
   pagecolor="#ffffff"
   bordercolor="#000000"
   borderopacity="0.25"
   inkscape:showpageshadow="2"
   inkscape:pageopacity="0.0"
   inkscape:pagecheckerboard="0"
   inkscape:deskcolor="#d1d1d1" />&#10;<style
   type="text/css"
   id="style1">&#10;	.st0{fill:#3D98D3;}&#10;	.st1{fill:#FFFFFF;}&#10;	.st2{fill:#354E5C;}&#10;	.st3{fill:#29176F;}&#10;	.st4{fill:#D9261D;}&#10;	.st5{fill:#262626;}&#10;</style>&#10;<path
   class="st3"
   d="m 99.2,11.8 c 11.4,0 21.4,6.5 25.7,16.6 0.3,0.6 0.5,0.8 1.2,0.9 4.5,0.4 8.6,1.9 12.4,4.4 6.4,4.2 10.5,10.1 12,17.6 1.8,9.4 -0.7,17.6 -7.1,24.7 -0.6,0.6 -1.2,1.2 -1.9,1.8 -0.2,0.2 -0.3,0.4 -0.2,0.7 0.5,2.3 0.8,4.6 0.7,6.9 -0.2,9.9 -5.7,18.9 -14.4,23.7 -3.1,1.7 -6.4,2.8 -9.9,3.1 -6.3,0.7 -12.2,-0.5 -17.6,-3.8 -0.3,-0.2 -0.6,-0.2 -0.9,0 -3.3,2 -6.8,3.2 -10.6,3.7 -13,1.8 -25.4,-5.8 -29.7,-18.1 -1.2,-3.5 -1.7,-7 -1.6,-10.7 0.1,-1.7 0.3,-3.3 0.7,-4.9 0.1,-0.3 0,-0.5 -0.2,-0.7 -2.8,-2.4 -5,-5.2 -6.6,-8.4 -1.5,-2.9 -2.4,-5.9 -2.8,-9.1 -0.9,-8.4 1.4,-15.8 7,-22 4.3,-4.7 9.6,-7.6 15.9,-8.7 0.7,-0.1 1.5,-0.2 2.2,-0.3 0.4,0 0.5,-0.2 0.7,-0.5 1.3,-3.2 3.2,-6 5.6,-8.4 4.3,-4.4 9.4,-7.1 15.5,-8.1 1.3,-0.3 2.8,-0.4 3.9,-0.4 z M 63,76.4 c -1.8,5 -2,10 -0.5,15.1 1.5,5.1 4.5,9.2 8.8,12.3 3.6,2.6 7.7,4.1 12.2,4.4 6,0.4 11.5,-1.4 16.2,-5.1 8.4,6.7 19.7,6.6 27.7,1.3 3.9,-2.6 6.8,-6.1 8.6,-10.4 2.4,-5.8 2.5,-11.6 0.3,-17.5 2.8,-1.8 5.1,-4.1 6.8,-6.9 1.8,-2.8 3,-5.8 3.5,-9.1 0.5,-3.3 0.3,-6.5 -0.5,-9.7 -1.2,-4.3 -3.4,-8.1 -6.7,-11.1 -4.8,-4.4 -10.6,-6.4 -17.1,-6.3 -1.4,-4.8 -3.9,-8.8 -7.8,-12 -3.9,-3.2 -8.3,-4.9 -13.3,-5.2 -4.7,-0.3 -9.2,0.7 -13.2,3.1 -5.6,3.2 -9.2,8 -11,14.2 -3.4,-0.1 -6.8,0.4 -9.9,1.7 -3.2,1.3 -6,3.2 -8.3,5.7 -2.3,2.5 -4.1,5.4 -5.1,8.6 -1.5,4.5 -1.6,9 -0.4,13.5 1.4,5.6 4.7,10.1 9.7,13.4 z"
   id="path1" />&#10;<path
   class="st1"
   d="m 63,76.4 c -4.9,-3.3 -8.2,-7.8 -9.8,-13.5 -1.3,-4.5 -1.1,-9.1 0.4,-13.5 1.1,-3.3 2.8,-6.1 5.1,-8.6 2.4,-2.5 5.1,-4.4 8.3,-5.7 3.2,-1.3 6.5,-1.8 9.9,-1.7 1.8,-6.2 5.4,-10.9 11,-14.2 4.1,-2.4 8.5,-3.4 13.2,-3.1 5,0.3 9.4,2.1 13.3,5.2 3.9,3.2 6.4,7.2 7.8,12 6.5,-0.2 12.3,1.9 17.1,6.3 3.3,3 5.5,6.8 6.7,11.1 0.9,3.2 1,6.4 0.5,9.7 -0.5,3.3 -1.7,6.3 -3.5,9.1 -1.8,2.8 -4.1,5.1 -6.8,6.9 2.1,5.9 2.1,11.7 -0.3,17.5 -1.8,4.4 -4.7,7.8 -8.6,10.4 -7.9,5.3 -19.2,5.4 -27.7,-1.3 -4.8,3.7 -10.2,5.5 -16.2,5.1 -4.5,-0.3 -8.5,-1.7 -12.2,-4.4 -4.3,-3.1 -7.3,-7.2 -8.8,-12.3 -1.5,-4.9 -1.3,-10 0.6,-15 z M 120.4,35.9 C 119.2,27.2 112,19.1 101.6,18.1 97.1,17.7 92.9,18.6 89,20.9 c -5.7,3.4 -9.1,8.5 -10.2,15 -3.2,-0.5 -6.4,-0.3 -9.4,0.6 -3.1,0.9 -5.8,2.5 -8.2,4.6 -2.4,2.2 -4.2,4.8 -5.4,7.8 -1.6,4.1 -2,8.4 -0.9,12.7 1.6,6.3 5.3,10.9 11,13.9 -1.5,3 -2.3,6.1 -2.3,9.3 0,3.3 0.6,6.4 2,9.3 1.4,3 3.4,5.5 5.9,7.5 3.4,2.7 7.3,4.3 11.7,4.5 6.3,0.4 11.8,-1.7 16.3,-6.1 0.1,0 0.1,0 0.1,0 0.1,0.1 0.2,0.2 0.3,0.3 5.5,5.1 12,6.9 19.3,5.3 8.5,-1.8 15.4,-9.1 16.2,-18.7 0.3,-3.9 -0.3,-7.6 -2.1,-11.1 -0.1,-0.1 -0.1,-0.2 -0.1,-0.4 4.5,-2.3 7.8,-5.8 9.8,-10.4 2,-4.7 2.3,-9.5 0.9,-14.3 -1.3,-4.4 -3.8,-8 -7.5,-10.8 -4.7,-3.6 -10.1,-4.9 -16,-4 z"
   id="path2" />&#10;<path
   class="st4"
   d="m 120.4,35.9 c 5.9,-0.8 11.3,0.5 16.1,4 3.7,2.8 6.2,6.4 7.5,10.8 1.4,4.9 1.2,9.7 -0.9,14.3 -2,4.6 -5.3,8.1 -9.8,10.4 0,0.1 0.1,0.3 0.1,0.4 1.7,3.5 2.4,7.2 2.1,11.1 -0.8,9.6 -7.7,16.9 -16.2,18.7 -7.3,1.6 -13.8,-0.2 -19.3,-5.3 -0.1,-0.1 -0.2,-0.2 -0.3,-0.3 0,0 -0.1,0 -0.1,0 -4.5,4.4 -10,6.5 -16.3,6.1 -4.4,-0.2 -8.3,-1.8 -11.7,-4.5 -2.6,-2 -4.5,-4.6 -5.9,-7.5 -1.4,-3 -2,-6.1 -2,-9.3 0,-3.3 0.8,-6.4 2.3,-9.3 -5.7,-3 -9.4,-7.6 -11,-13.9 -1.1,-4.3 -0.7,-8.6 0.9,-12.7 1.2,-3 3,-5.6 5.4,-7.8 2.4,-2.2 5.1,-3.7 8.2,-4.6 3.1,-0.9 6.2,-1.1 9.4,-0.6 1.2,-6.6 4.5,-11.6 10.2,-15 3.9,-2.3 8.1,-3.2 12.6,-2.8 10.3,1 17.5,9.1 18.7,17.8 z m -2.5,3.5 c 0,-4.8 -1.6,-9.1 -4.8,-12.6 -3.3,-3.6 -7.4,-5.6 -12.2,-5.9 -4.3,-0.3 -8.2,0.8 -11.7,3.3 -5.2,3.7 -7.7,8.9 -7.8,15.2 -9.7,-3.2 -19.5,2 -22.9,10.5 -1.7,4.2 -1.8,8.6 -0.2,12.8 2.1,5.7 6.1,9.5 11.8,11.5 -1.9,2.6 -3.1,5.5 -3.5,8.6 -0.4,3.2 0,6.2 1.2,9.2 1.2,3 3,5.5 5.6,7.5 3.6,2.8 7.7,4.1 12.2,3.9 5.9,-0.3 10.6,-3 14.2,-7.8 1.9,2.6 4.2,4.6 7.1,6 2.9,1.4 6,2 9.1,1.7 3.2,-0.2 6.1,-1.2 8.8,-2.9 3.7,-2.5 6.3,-5.9 7.5,-10.2 1.6,-5.8 0.6,-11.1 -2.9,-16.1 4.8,-1.6 8.4,-4.5 10.8,-9 2.3,-4.4 2.8,-9.1 1.3,-13.9 -1.4,-4.4 -4.1,-7.8 -8,-10.2 -5.1,-2.8 -10.2,-3.3 -15.6,-1.6 z"
   id="path3" />&#10;<path
   class="st1"
   d="m 117.9,39.4 c 5.4,-1.7 10.5,-1.2 15.4,1.7 4,2.4 6.7,5.8 8,10.2 1.5,4.8 1,9.5 -1.3,13.9 -2.3,4.4 -6,7.4 -10.8,9 3.5,4.9 4.5,10.3 2.9,16.1 -1.2,4.3 -3.7,7.7 -7.5,10.2 -2.7,1.8 -5.6,2.7 -8.8,2.9 -3.2,0.2 -6.3,-0.4 -9.1,-1.7 -2.9,-1.4 -5.2,-3.4 -7.1,-6 -3.5,4.8 -8.2,7.5 -14.2,7.8 -4.5,0.2 -8.6,-1.1 -12.2,-3.9 -2.5,-2 -4.4,-4.5 -5.6,-7.5 -1.2,-3 -1.6,-6 -1.2,-9.2 0.4,-3.2 1.6,-6 3.5,-8.6 C 64.1,72.3 60.1,68.6 58.1,62.8 56.5,58.5 56.7,54.2 58.3,50 61.7,41.5 71.4,36.3 81.2,39.5 81.3,33.1 83.8,28 89,24.3 c 3.5,-2.5 7.4,-3.6 11.7,-3.3 4.8,0.3 8.9,2.3 12.2,5.9 3.4,3.4 5,7.6 5,12.5 z m -3.5,10.1 c 0,-8.1 -6.6,-14.7 -14.7,-14.8 -8.1,0 -14.8,6.6 -14.8,14.7 0,8.2 6.6,14.8 14.8,14.8 8.1,0.1 14.7,-6.5 14.7,-14.7 z M 75,74.8 c -0.7,4.1 -1.5,8.1 -2.2,12.1 0.5,0.1 1,0.2 1.5,-0.1 1.3,-0.6 2.5,-1.1 3.8,-1.7 0.1,-0.1 0.3,-0.1 0.4,-0.2 1.2,1 2.5,1.5 4,1.6 1.5,0.1 2.9,-0.1 4.2,-0.8 0.6,0.6 1.3,1.2 1.9,1.8 0.1,-0.1 0.1,-0.1 0.1,-0.1 1.8,-1.9 3.7,-3.8 5.5,-5.8 0.3,-0.4 0.3,-1.1 -0.1,-1.5 -1.9,-1.8 -3.7,-3.5 -5.6,-5.3 -0.1,-0.1 -0.2,-0.2 -0.3,-0.3 -0.7,0.7 -1.4,1.4 -2.1,2.1 -1.3,-0.4 -2.5,-0.7 -3.8,-0.6 -1.3,0.1 -2.5,0.5 -3.6,1.1 -0.1,-0.1 -0.2,-0.2 -0.4,-0.3 -0.7,-0.6 -1.4,-1.3 -2,-2 -0.4,-0.4 -0.8,-0.5 -1.3,-0.4 0.2,0.4 0.1,0.4 0,0.4 z M 112.7,87 c 0.2,0 0.4,0 0.6,0 0.8,0 1.6,0 2.5,0 0.3,0 0.7,-0.1 1,-0.3 1,-0.5 1.1,-1.9 0.3,-2.6 C 117,84 117,84 116.9,83.9 c 0.1,-0.1 0.1,-0.1 0.2,-0.2 0.7,-0.9 0.3,-2 -0.8,-2.3 -0.1,0 -0.3,-0.1 -0.4,-0.1 -1,0 -2,0 -3,0 0,0 -0.1,0 -0.1,0.1 -0.1,1.9 -0.1,3.7 -0.1,5.6 z m -5.3,-8.9 c 0.1,-0.1 0.2,-0.1 0.3,-0.1 0.7,-0.3 1.1,-0.8 1.2,-1.6 0.1,-0.8 -0.3,-1.4 -1.1,-1.6 -1.1,-0.3 -2.2,-0.2 -3.3,0 -0.4,1.8 -0.8,3.5 -1.2,5.3 0.7,0 1.2,0 1.8,0 0.1,-0.3 0.1,-0.6 0.2,-0.9 0.1,-0.3 0.1,-0.5 0.2,-0.8 0,0 0.1,0 0.1,0 0.2,0.5 0.4,1.1 0.6,1.6 0.7,0 1.3,0 2,0 0,-0.1 0,-0.1 0,-0.2 -0.2,-0.5 -0.5,-1.1 -0.8,-1.7 z m -5.5,5.2 c 0,-0.8 -0.4,-1.3 -1,-1.7 -1,-0.7 -3.1,-0.6 -3.9,1.1 -0.5,1 -0.5,2 -0.1,3 0.7,1.5 2.4,2 3.8,1.1 0,0 0.1,0 0.1,0 0.1,0.1 0.1,0.2 0.2,0.3 0.3,0 0.6,0 0.9,0 0.1,-0.9 0.1,-2.8 0,-3.1 -0.8,0 -1.6,0 -2.4,0 0,0.4 0,0.7 0,1.1 0.4,0 0.7,0 1.1,0 0,0.1 0,0.2 0,0.2 -0.2,0.4 -0.5,0.6 -0.9,0.7 -0.5,0 -1,-0.1 -1.3,-0.6 -0.4,-0.8 -0.4,-1.6 0,-2.3 0.2,-0.4 0.7,-0.6 1.2,-0.6 0.5,0 0.8,0.3 0.9,0.7 0,0.1 0.1,0.1 0.1,0.2 0.4,-0.1 0.9,-0.1 1.3,-0.1 z m 17.4,-2 c -0.7,1.9 -1.4,3.7 -2.1,5.7 0.5,0 1,0 1.5,0 0.1,-0.4 0.3,-0.8 0.4,-1.1 0.6,0 1.3,0 1.9,0 0.2,0.4 0.3,0.8 0.4,1.2 0.5,0 0.9,0 1.5,0 -0.7,-1.9 -1.4,-3.8 -2.1,-5.7 -0.6,-0.1 -1,-0.1 -1.5,-0.1 z m -10.7,-1.4 c 0.9,0.2 1.6,0.3 2.4,0.2 0.8,-0.2 1.4,-0.6 1.7,-1.3 0.3,-0.7 0.2,-1.3 -0.5,-1.7 -0.3,-0.2 -0.6,-0.3 -0.8,-0.5 -0.2,-0.1 -0.3,-0.2 -0.5,-0.3 0.6,-0.6 1.2,-0.2 1.8,-0.1 0.1,-0.5 0.2,-0.9 0.4,-1.3 -0.8,-0.3 -2,-0.3 -2.8,0.1 -0.3,0.2 -0.6,0.4 -0.8,0.6 -0.6,0.7 -0.5,1.5 0.3,2 0.3,0.2 0.6,0.3 0.9,0.5 0.1,0.1 0.2,0.2 0.3,0.3 -0.1,0.1 -0.2,0.3 -0.4,0.3 -0.3,0 -0.7,0 -1,-0.1 -0.2,0 -0.4,-0.1 -0.6,-0.2 -0.2,0.6 -0.3,1 -0.4,1.5 z m -10,0.1 c 0.2,-0.6 0.3,-1.2 0.5,-1.9 0.6,0 1.2,0 1.8,0 0.1,-0.4 0.2,-0.8 0.3,-1.3 -0.6,0 -1.2,0 -1.8,0 0.1,-0.3 0.1,-0.5 0.2,-0.8 0.6,0 1.2,0 1.7,0 0.1,-0.5 0.2,-0.9 0.3,-1.4 -1.3,0 -2.4,0 -3.7,0 -0.4,1.8 -0.8,3.5 -1.2,5.3 0.6,0.1 1.2,0.1 1.9,0.1 z m 13.7,4.2 c 0,-1.7 -1.3,-3 -2.9,-3 -1.7,0 -3,1.3 -3,3 0,1.7 1.3,3 3,3 1.6,0 2.9,-1.3 2.9,-3 z m 2.2,-7.9 c -0.2,0.7 -0.3,1.3 -0.5,1.9 -0.1,0.6 -0.3,1.2 -0.4,1.8 0.6,0 1.2,0 1.8,0 0.3,-1.3 0.6,-2.5 0.9,-3.8 0.5,0 0.9,0 1.4,0 0.1,-0.5 0.2,-1 0.3,-1.5 -1.6,0 -3.1,0 -4.6,0 -0.1,0.5 -0.3,1 -0.4,1.5 0.5,0.1 0.9,0.1 1.5,0.1 z m 8.6,5.1 c 0,1.9 0,3.8 0,5.7 1.4,0 2.7,0 4,0 0,-0.4 0,-0.8 0,-1.2 -0.9,0 -1.7,0 -2.7,0 0,-1.5 0,-3 0,-4.4 -0.4,-0.1 -0.8,-0.1 -1.3,-0.1 z m -16.6,4.4 c -0.9,0 -1.7,0 -2.7,0 0,-1.5 0,-3 0,-4.4 -0.5,0 -0.9,0 -1.4,0 0,1.9 0,3.8 0,5.6 0.5,0.1 3.7,0.1 4,0 0.1,-0.4 0.1,-0.8 0.1,-1.2 z M 100.9,80 c 0.7,0 1.3,0 1.9,0 0.4,-1.8 0.8,-3.5 1.2,-5.3 -0.7,0 -1.3,0 -1.9,0 -0.4,1.8 -0.8,3.5 -1.2,5.3 z m 15.6,-0.3 c 0,-0.1 0.1,-0.3 -0.1,-0.4 0,0 -0.2,0.1 -0.2,0.2 0,0.3 0.1,0.3 0.3,0.2 z"
   id="path4" />&#10;<path
   class="st3"
   d="m 114.4,49.5 c 0,8.2 -6.6,14.8 -14.8,14.8 -8.2,0 -14.8,-6.6 -14.8,-14.8 0,-8.1 6.7,-14.7 14.8,-14.7 8.2,0 14.8,6.5 14.8,14.7 z"
   id="path5" />&#10;<path
   class="st5"
   d="m 106.2,49.5 c 0,-3.7 -3,-6.6 -6.6,-6.6 -3.7,0 -6.6,3 -6.6,6.6 0,3.7 3,6.6 6.7,6.6 3.6,0 6.5,-3 6.5,-6.6 z"
   id="path6" />&#10;<path
   class="st5"
   d="m 86.5,49.4 c 0,0 0,0.1 0,0.1 1.9,0.5 3.8,1 5.7,1.5 0,-1.1 0,-2.1 0,-3.2 -1.9,0.6 -3.8,1.1 -5.7,1.6 z"
   id="path7" />&#10;<path
   class="st5"
   d="m 112.7,49.6 c 0,0 0,-0.1 0,-0.1 -1.9,-0.5 -3.8,-1 -5.7,-1.5 0,0.6 0.1,1.1 0.1,1.6 0,0.5 0,1 -0.1,1.6 1.9,-0.6 3.8,-1.1 5.7,-1.6 z"
   id="path8" />&#10;<path
   class="st5"
   d="m 110.9,56.1 c -1.4,-1.4 -2.8,-2.9 -4.3,-4.3 -0.3,0.9 -0.8,1.9 -1.5,2.7 2,0.6 3.9,1.1 5.8,1.6 z"
   id="path9" />&#10;<path
   class="st5"
   d="m 94.1,54.6 c -0.7,-0.8 -1.2,-1.8 -1.5,-2.7 -1.4,1.4 -2.8,2.8 -4.2,4.2 1.8,-0.5 3.7,-1 5.7,-1.5 z"
   id="path10" />&#10;<path
   class="st5"
   d="m 106.7,47.2 c 1.5,-1.5 2.9,-2.8 4.3,-4.3 -0.7,0.1 -5.5,1.4 -5.8,1.6 0.7,0.8 1.1,1.7 1.5,2.7 z"
   id="path11" />&#10;<path
   class="st5"
   d="m 106.2,38.2 c 0,0 -0.1,0 -0.1,-0.1 -1.4,1.4 -2.8,2.8 -4.2,4.2 0.4,0.2 0.7,0.3 1,0.4 0.3,0.2 0.6,0.3 0.9,0.5 0.3,0.2 0.5,0.4 0.8,0.6 0.5,-1.8 1.1,-3.7 1.6,-5.6 z"
   id="path12" />&#10;<path
   class="st5"
   d="m 98,56.9 c 0.5,1.9 1,3.8 1.5,5.7 0,0 0.1,0 0.1,0 0.5,-1.9 1,-3.8 1.5,-5.7 -1,0 -2,0 -3.1,0 z"
   id="path13" />&#10;<path
   class="st5"
   d="m 97.2,42.3 c -0.6,-0.8 -3.8,-4 -4.2,-4.2 0.5,1.9 1,3.8 1.6,5.7 0.9,-0.5 1.7,-1 2.6,-1.5 z"
   id="path14" />&#10;<path
   class="st5"
   d="m 92.5,47.2 c 0.2,-0.5 0.4,-1 0.7,-1.4 0.3,-0.4 0.6,-0.9 0.8,-1.3 -1.2,-0.4 -5.4,-1.5 -5.8,-1.5 1.4,1.4 2.8,2.8 4.3,4.2 z"
   id="path15" />&#10;<path
   class="st5"
   d="M 97.2,56.6 C 96.3,56.3 95.4,55.7 94.6,55 94.3,55.5 93,60.4 93,60.7 94.4,59.4 95.8,58 97.2,56.6 Z"
   id="path16" />&#10;<path
   class="st5"
   d="m 101.9,56.6 c 0.1,0.1 0.2,0.2 0.3,0.3 1.3,1.3 2.6,2.6 3.9,3.9 0,0 0,0 0,0 0,0 0,0 0.1,-0.1 -0.5,-1.9 -1,-3.8 -1.6,-5.7 -0.8,0.8 -1.7,1.3 -2.7,1.6 z"
   id="path17" />&#10;<path
   class="st5"
   d="m 101.1,42.2 c 0,-0.7 -1.3,-5.5 -1.6,-5.8 -0.3,1 -0.5,1.9 -0.8,2.9 -0.2,0.9 -0.5,1.9 -0.7,2.9 1.1,-0.2 2.1,-0.2 3.1,0 z"
   id="path18" />&#10;<path
   d="m 75,74.8 c 0.1,0 0.2,0 0.3,-0.1 0.5,-0.1 0.9,0 1.3,0.4 0.6,0.7 1.4,1.3 2,2 0.1,0.1 0.2,0.2 0.4,0.3 1.1,-0.6 2.3,-1 3.6,-1.1 1.3,-0.1 2.5,0.2 3.8,0.6 0.7,-0.7 1.4,-1.4 2.1,-2.1 0.1,0.1 0.2,0.2 0.3,0.3 1.9,1.8 3.7,3.5 5.6,5.3 0.4,0.4 0.4,1.1 0.1,1.5 -1.8,1.9 -3.7,3.8 -5.5,5.8 0,0 -0.1,0 -0.1,0.1 -0.6,-0.6 -1.2,-1.2 -1.9,-1.8 -1.3,0.7 -2.8,0.9 -4.2,0.8 -1.5,-0.1 -2.8,-0.6 -4,-1.6 -0.1,0.1 -0.3,0.1 -0.4,0.2 -1.3,0.6 -2.6,1.1 -3.8,1.7 -0.5,0.2 -1,0.2 -1.5,0.1 0.4,-4.3 1.2,-8.4 1.9,-12.4 z m 19.4,5.9 c -2,-1.9 -4,-3.8 -6,-5.8 -1.9,2 -3.8,4 -5.7,6 1,0.9 1.9,1.8 2.8,2.7 0.5,-0.2 0.9,-0.4 1.3,-0.8 -0.6,-0.6 -1.3,-1.3 -1.9,-1.9 1.2,-1.3 2.4,-2.5 3.7,-3.8 1.3,1.2 2.5,2.4 3.7,3.6 -1.6,1.7 -3.1,3.3 -4.7,4.9 0.4,0.4 0.8,0.7 1.2,1.1 1.8,-2 3.6,-4 5.6,-6 z m -18.5,3.6 c 0.4,-2.2 0.8,-4.3 1.2,-6.4 0.8,0.5 4,3.6 4.2,3.9 -0.5,0.3 -1.1,0.5 -1.7,0.8 0.2,0.2 0.3,0.3 0.4,0.4 0.8,0.6 0.8,0.6 1.7,0.2 0.1,0 0.2,-0.1 0.3,-0.1 0.4,-0.2 0.8,-0.4 1.2,-0.6 -0.1,-0.2 -0.2,-0.3 -0.4,-0.4 -0.3,-0.2 -0.4,-0.5 -0.4,-0.8 0,-0.2 -0.1,-0.4 -0.3,-0.6 C 80.1,78.8 78.2,77 76.2,75.1 76.1,75 76,75 75.9,74.9 c -0.7,4 -1.4,7.9 -2.1,11.8 0.7,-0.2 4.1,-1.7 4.4,-1.9 -0.3,-0.4 -0.5,-0.7 -0.8,-1.1 -0.5,0.2 -0.9,0.4 -1.5,0.6 z m 12.2,-5.9 c -0.3,0.3 -0.5,0.6 -0.8,0.8 0.1,0.1 0.1,0.2 0.2,0.3 0.6,1.2 0.4,2.4 -0.6,3.3 -0.4,0.4 -1,0.7 -1.5,0.9 -1.4,0.5 -2.8,0.5 -4.1,0.1 -0.7,-0.2 -1.3,-0.6 -1.9,-1.2 -0.6,-0.6 -0.9,-1.3 -0.7,-2.2 0,-0.1 0,-0.3 0,-0.4 -0.3,-0.3 -0.5,-0.6 -0.9,-0.9 -0.7,1.1 -0.7,2.3 -0.1,3.4 0.4,0.7 1,1.3 1.7,1.7 2.6,1.5 5.2,1.5 7.8,0 0.7,-0.4 1.2,-0.9 1.6,-1.5 0.8,-1.2 0.6,-3 -0.7,-4.3 z m -9,-0.8 c 0.4,0.4 0.7,0.7 1,1 1.6,-1 3.3,-1.1 5,-0.6 0.3,-0.3 0.6,-0.6 0.9,-1 -2.3,-0.8 -4.6,-0.8 -6.9,0.6 z m 9.3,0.4 c 0,0.2 -0.1,0.3 -0.1,0.3 0.1,0.1 0.2,0.2 0.2,0.3 0.6,0.7 0.9,1.6 0.9,2.5 0,0.7 -0.1,1.4 -0.3,2 0,0.1 0,0.1 0,0.3 0.8,-0.9 1.6,-1.6 2.4,-2.5 -1,-0.9 -2,-1.9 -3.1,-2.9 z m -4.2,0.9 c -0.9,-0.3 -2.7,-0.1 -3.2,0.4 0.5,0.5 1,0.9 1.5,1.4 0.6,-0.6 1.1,-1.2 1.7,-1.8 z m 1.2,2.3 c 0.5,0.5 1,1 1.5,1.4 0.3,-0.3 0.5,-0.7 0.6,-1.1 0,-0.2 0,-0.4 0,-0.6 -0.2,-0.4 -0.4,-0.7 -0.8,-1 -0.4,0.5 -0.9,0.8 -1.3,1.3 z m -4.1,2.4 c 0.6,0.4 2.4,0.5 3.2,0.2 -0.3,-0.3 -0.6,-0.7 -1,-1 -0.1,-0.1 -0.2,-0.1 -0.3,0 -0.6,0.2 -1.2,0.5 -1.9,0.8 z M 77.2,83 C 77.1,82.3 77,81.6 77,81 c 0,-0.7 0.2,-1.3 0.6,-2 -0.1,-0.1 -0.1,-0.2 -0.2,-0.2 0,0 -0.1,0 -0.2,-0.1 -0.3,1.5 -0.6,3 -0.9,4.6 0.4,-0.1 0.6,-0.2 0.9,-0.3 z m 3,-1.2 c -0.4,-0.4 -0.7,-0.8 -1.1,-1.1 -0.4,0.5 -0.5,0.8 0.1,1.5 0.4,-0.1 0.7,-0.3 1,-0.4 z"
   id="path19" />&#10;<path
   d="m 112.7,87 c 0,-1.9 0,-3.8 0,-5.6 0,0 0.1,-0.1 0.1,-0.1 1,0 2,0 3,0 0.1,0 0.3,0 0.4,0.1 1.1,0.3 1.5,1.4 0.8,2.3 -0.1,0.1 -0.1,0.1 -0.2,0.2 0.1,0.1 0.2,0.1 0.2,0.2 0.8,0.7 0.7,2.1 -0.3,2.6 -0.3,0.2 -0.6,0.3 -1,0.3 -0.8,0 -1.6,0 -2.5,0 -0.2,0 -0.3,0 -0.5,0 z m 1.4,-1.2 c 0.5,0 0.9,0 1.4,0 0.4,0 0.5,-0.3 0.5,-0.6 0,-0.3 -0.2,-0.6 -0.5,-0.6 -0.4,0 -0.9,0 -1.4,0 0,0.4 0,0.8 0,1.2 z m 0,-2.3 c 0.5,0 0.8,0 1.2,0 0.3,0 0.5,-0.2 0.5,-0.5 0,-0.3 -0.2,-0.5 -0.5,-0.5 -0.4,0 -0.8,0 -1.2,0 0,0.4 0,0.7 0,1 z"
   id="path20" />&#10;<path
   d="m 107.4,78.1 c 0.3,0.6 0.6,1.2 0.9,1.8 0,0 0,0.1 0,0.2 -0.7,0 -1.3,0 -2,0 -0.2,-0.5 -0.4,-1.1 -0.6,-1.6 0,0 -0.1,0 -0.1,0 -0.1,0.3 -0.1,0.5 -0.2,0.8 -0.1,0.3 -0.1,0.6 -0.2,0.9 -0.6,0 -1.2,0 -1.8,0 0.4,-1.8 0.8,-3.5 1.2,-5.3 1.1,-0.1 2.2,-0.3 3.3,0 0.8,0.2 1.2,0.8 1.1,1.6 -0.1,0.7 -0.5,1.3 -1.2,1.6 -0.2,-0.1 -0.3,-0.1 -0.4,0 z m -1.6,-0.9 c 0.4,0.1 0.6,0 0.9,-0.2 0.2,-0.2 0.4,-0.5 0.3,-0.8 -0.1,-0.2 -0.3,-0.3 -0.7,-0.3 0,0 -0.1,0 -0.2,0.1 -0.1,0.4 -0.2,0.8 -0.3,1.2 z"
   id="path21" />&#10;<path
   d="m 101.9,83.3 c -0.5,0 -0.9,0 -1.3,0 0,0 -0.1,-0.1 -0.1,-0.2 -0.1,-0.4 -0.5,-0.7 -0.9,-0.7 -0.5,0 -0.9,0.1 -1.2,0.6 -0.4,0.8 -0.4,1.6 0,2.3 0.3,0.5 0.7,0.6 1.3,0.6 0.4,0 0.8,-0.2 0.9,-0.7 0,-0.1 0,-0.1 0,-0.2 -0.4,0 -0.7,0 -1.1,0 0,-0.4 0,-0.7 0,-1.1 0.8,0 1.6,0 2.4,0 0.1,0.3 0.1,2.3 0,3.1 -0.3,0 -0.6,0 -0.9,0 0,-0.1 -0.1,-0.2 -0.2,-0.3 -0.1,0 -0.1,0 -0.1,0 -1.4,0.9 -3.1,0.4 -3.8,-1.1 -0.4,-1 -0.4,-2 0.1,-3 0.8,-1.7 2.9,-1.7 3.9,-1.1 0.6,0.5 1,1 1,1.8 z"
   id="path22" />&#10;<path
   d="m 119.3,81.3 c 0.5,0 0.9,0 1.4,0 0.7,1.9 1.4,3.7 2.1,5.7 -0.5,0 -1,0 -1.5,0 -0.1,-0.4 -0.3,-0.7 -0.4,-1.2 -0.6,0 -1.2,0 -1.9,0 -0.1,0.4 -0.3,0.8 -0.4,1.1 -0.5,0 -0.9,0 -1.5,0 0.8,-1.8 1.5,-3.7 2.2,-5.6 z m 0.1,3.3 c 0.4,0 0.7,0 1.1,0 -0.2,-0.5 -0.3,-0.9 -0.5,-1.4 0,0 -0.1,0 -0.1,0 -0.1,0.5 -0.3,0.9 -0.5,1.4 z"
   id="path23" />&#10;<path
   d="m 108.6,79.9 c 0.1,-0.5 0.3,-1 0.4,-1.5 0.2,0.1 0.4,0.1 0.6,0.2 0.3,0 0.7,0.1 1,0.1 0.1,0 0.2,-0.2 0.4,-0.3 -0.1,-0.1 -0.2,-0.2 -0.3,-0.3 -0.3,-0.2 -0.6,-0.3 -0.9,-0.5 -0.8,-0.5 -0.9,-1.3 -0.3,-2 0.2,-0.2 0.5,-0.5 0.8,-0.6 0.8,-0.4 2,-0.5 2.8,-0.1 -0.1,0.4 -0.2,0.9 -0.4,1.3 -0.6,0 -1.2,-0.5 -1.8,0.1 0.2,0.1 0.4,0.2 0.5,0.3 0.3,0.2 0.6,0.3 0.8,0.5 0.6,0.4 0.8,1 0.5,1.7 -0.4,0.7 -1,1.1 -1.7,1.3 -0.8,0.2 -1.6,0.1 -2.4,-0.2 z"
   id="path24" />&#10;<path
   d="m 98.6,80 c -0.6,0 -1.2,0 -1.9,0 0.4,-1.8 0.8,-3.5 1.2,-5.3 1.2,0 2.4,0 3.7,0 -0.1,0.5 -0.2,0.9 -0.3,1.4 -0.6,0 -1.1,0 -1.7,0 -0.1,0.3 -0.1,0.5 -0.2,0.8 0.6,0 1.2,0 1.8,0 -0.1,0.5 -0.2,0.9 -0.3,1.3 -0.6,0 -1.2,0 -1.8,0 -0.2,0.6 -0.4,1.2 -0.5,1.8 z"
   id="path25" />&#10;<path
   d="m 112.3,84.2 c 0,1.6 -1.3,3 -3,3 -1.7,0 -3,-1.4 -3,-3 0,-1.7 1.4,-3 3,-3 1.7,0 3,1.4 3,3 z m -4.2,-1.3 c -0.1,0.4 -0.1,0.8 -0.2,1.2 0.5,0.1 0.9,0.2 1.3,0.1 0,-0.4 0,-0.7 0,-1.1 -0.4,0 -0.7,-0.1 -1.1,-0.2 z m 2.6,1.2 c 0,-0.5 0,-0.8 -0.2,-1.2 -0.2,0 -0.3,0.1 -0.5,0.1 -0.2,0 -0.3,0.1 -0.5,0.1 0,0.4 0,0.8 0,1.2 0.4,-0.1 0.8,-0.1 1.2,-0.2 z m -1.5,0.5 c -0.3,0 -0.5,0 -0.7,-0.1 -0.2,0 -0.4,-0.1 -0.7,-0.1 0.1,0.3 0.1,0.6 0.1,0.9 0,0.1 0.2,0.3 0.3,0.3 0.3,0.1 0.6,0.1 0.9,0 0,-0.2 0,-0.3 0,-0.5 0.1,-0.1 0.1,-0.3 0.1,-0.5 z m 0.3,1.1 c 1.2,0 1.1,0 1.2,-1 0,-0.1 0,-0.1 0,-0.2 -0.4,0.1 -0.8,0.1 -1.2,0.2 0,0.3 0,0.6 0,1 z m 2.4,-1.8 c -0.3,0.1 -0.5,0.2 -0.8,0.4 -0.1,0 -0.1,0.1 -0.1,0.2 0,0.3 -0.1,0.6 -0.1,0.9 1,-0.3 1.2,-0.5 1,-1.5 z m -4.2,1.5 c 0,-0.4 -0.1,-0.7 -0.1,-1.1 -0.3,-0.1 -0.6,-0.3 -0.9,-0.4 -0.2,1 0,1.2 1,1.5 z m 3.6,-2.9 c -0.2,0.1 -0.3,0.2 -0.5,0.3 0.1,0.4 0.1,0.8 0.2,1.2 0.3,-0.2 0.6,-0.3 0.8,-0.5 0,-0.4 -0.2,-0.7 -0.5,-1 z m -3.8,1.5 c 0.1,-0.5 0.2,-0.8 0.2,-1.2 -0.2,-0.1 -0.3,-0.2 -0.5,-0.3 -0.3,0.3 -0.5,0.6 -0.6,1.1 0.4,0.1 0.6,0.2 0.9,0.4 z m 1.6,-2.4 c -0.5,0.2 -0.8,0.5 -0.9,1 0.3,0.2 0.6,0.2 0.9,0.2 0,-0.4 0,-0.8 0,-1.2 z m 1.3,1 c -0.2,-0.5 -0.5,-0.9 -0.9,-1 0,0.4 0,0.8 0,1.2 0.3,-0.1 0.6,-0.1 0.9,-0.2 z m -1.3,4.3 c 0,-0.3 0,-0.5 0,-0.8 -0.3,0 -0.6,-0.1 -0.9,-0.1 0.2,0.4 0.4,0.7 0.9,0.9 z m 0.4,-0.1 c 0.5,-0.1 0.7,-0.3 0.9,-0.9 -0.3,0 -0.6,0.1 -0.9,0.1 0,0.3 0,0.6 0,0.8 z M 107,85.5 c 0.3,0.5 0.7,0.9 1.2,1.1 -0.2,-0.6 -0.5,-1 -1.2,-1.1 z m 3.4,1.2 c 0.6,-0.2 0.9,-0.6 1.2,-1.1 -0.7,0 -1,0.4 -1.2,1.1 z m -2.9,-4.5 c 0.2,0.1 0.3,0.2 0.4,0.3 0.1,-0.2 0.2,-0.4 0.4,-0.6 0,0 0,0 -0.1,-0.1 -0.2,0.1 -0.4,0.2 -0.7,0.4 z m 3,-0.4 c -0.1,0 -0.1,0 0,0 0,0.3 0.1,0.5 0.3,0.7 0.1,-0.1 0.2,-0.1 0.4,-0.3 -0.3,-0.2 -0.5,-0.3 -0.7,-0.4 z"
   id="path26" />&#10;<path
   d="m 114.5,76.3 c -0.5,0 -1,0 -1.5,0 0.2,-0.5 0.3,-1 0.4,-1.5 1.5,0 3,0 4.6,0 -0.1,0.5 -0.2,1 -0.3,1.5 -0.5,0 -0.9,0 -1.4,0 -0.3,1.3 -0.6,2.5 -0.9,3.8 -0.6,0 -1.2,0 -1.8,0 0.1,-0.6 0.3,-1.2 0.4,-1.8 0.1,-0.7 0.3,-1.3 0.5,-2 z"
   id="path27" />&#10;<path
   d="m 123.1,81.4 c 0.5,0 0.9,0 1.4,0 0,1.5 0,2.9 0,4.4 0.9,0 1.8,0 2.7,0 0,0.4 0,0.8 0,1.2 -1.3,0 -2.7,0 -4,0 -0.1,-1.9 -0.1,-3.7 -0.1,-5.6 z"
   id="path28" />&#10;<path
   d="m 106.5,85.8 c 0,0.5 0,0.8 0,1.2 -0.4,0.1 -3.5,0.1 -4,0 0,-1.8 0,-3.7 0,-5.6 0.4,0 0.9,0 1.4,0 0,1.5 0,2.9 0,4.4 0.8,0 1.7,0 2.6,0 z"
   id="path29" />&#10;<path
   d="m 100.9,80 c 0.4,-1.8 0.8,-3.5 1.2,-5.3 0.6,0 1.2,0 1.9,0 -0.4,1.8 -0.8,3.5 -1.2,5.3 -0.6,0 -1.2,0 -1.9,0 z"
   id="path30" />&#10;<path
   d="m 116.5,79.7 c -0.2,0.1 -0.3,0 -0.3,-0.2 0,-0.1 0.1,-0.2 0.2,-0.2 0.2,0.1 0.1,0.3 0.1,0.4 z"
   id="path31" />&#10;<path
   class="st1"
   d="m 106.2,49.5 c 0,3.6 -2.9,6.6 -6.6,6.6 -3.6,0 -6.7,-3 -6.7,-6.6 0,-3.6 2.9,-6.6 6.6,-6.6 3.7,0 6.7,2.9 6.7,6.6 z"
   id="path32" />&#10;<path
   class="st1"
   d="m 86.5,49.4 c 1.9,-0.5 3.8,-1 5.7,-1.5 0,1.1 0,2.1 0,3.2 -1.9,-0.5 -3.8,-1 -5.7,-1.5 0,-0.1 0,-0.1 0,-0.2 z"
   id="path33" />&#10;<path
   class="st1"
   d="m 112.7,49.6 c -1.9,0.5 -3.8,1 -5.7,1.6 0,-0.6 0.1,-1.1 0.1,-1.6 0,-0.5 0,-1 -0.1,-1.6 1.9,0.5 3.8,1 5.7,1.5 z"
   id="path34" />&#10;<path
   class="st1"
   d="m 110.9,56.1 c -1.9,-0.5 -3.8,-1 -5.8,-1.6 0.7,-0.8 1.2,-1.8 1.5,-2.7 1.5,1.5 2.9,2.9 4.3,4.3 z"
   id="path35" />&#10;<path
   class="st1"
   d="m 94.1,54.6 c -2,0.5 -3.9,1.1 -5.8,1.6 1.4,-1.4 2.8,-2.8 4.2,-4.2 0.4,0.8 0.8,1.7 1.6,2.6 z"
   id="path36" />&#10;<path
   class="st1"
   d="m 106.7,47.2 c -0.4,-1 -0.8,-1.9 -1.5,-2.6 0.3,-0.2 5.1,-1.6 5.8,-1.6 -1.4,1.4 -2.8,2.8 -4.3,4.2 z"
   id="path37" />&#10;<path
   class="st1"
   d="m 106.2,38.2 c -0.5,1.9 -1,3.8 -1.6,5.7 -0.3,-0.2 -0.6,-0.4 -0.8,-0.6 -0.3,-0.2 -0.6,-0.4 -0.9,-0.5 -0.3,-0.2 -0.6,-0.3 -1,-0.4 1.4,-1.4 2.8,-2.8 4.2,-4.2 z"
   id="path38" />&#10;<path
   class="st1"
   d="m 98,56.9 c 1.1,0 2.1,0 3.1,0 -0.5,1.9 -1,3.8 -1.5,5.7 0,0 -0.1,0 -0.1,0 -0.5,-1.9 -1,-3.8 -1.5,-5.7 z"
   id="path39" />&#10;<path
   class="st1"
   d="m 97.2,42.3 c -0.9,0.5 -1.8,1 -2.7,1.5 -0.5,-1.9 -1,-3.8 -1.6,-5.7 0.5,0.3 3.7,3.5 4.3,4.2 z"
   id="path40" />&#10;<path
   class="st1"
   d="m 92.5,47.2 c -1.4,-1.4 -2.8,-2.8 -4.3,-4.2 0.4,0 4.6,1.1 5.8,1.5 -0.3,0.4 -0.6,0.8 -0.8,1.3 -0.3,0.4 -0.5,0.9 -0.7,1.4 z"
   id="path41" />&#10;<path
   class="st1"
   d="m 97.2,56.6 c -1.4,1.4 -2.8,2.8 -4.1,4.1 0,-0.3 1.3,-5.1 1.6,-5.7 0.7,0.8 1.6,1.3 2.5,1.6 z"
   id="path42" />&#10;<path
   class="st1"
   d="m 101.9,56.6 c 1,-0.4 1.9,-0.9 2.7,-1.6 0.6,2 1.1,3.9 1.6,5.7 0,0 0,0.1 -0.1,0.1 0,0 0,0 0,0 -1.3,-1.3 -2.6,-2.6 -3.9,-3.9 -0.1,0 -0.2,-0.1 -0.3,-0.3 z"
   id="path43" />&#10;<path
   class="st1"
   d="m 101.1,42.2 c -1,-0.2 -2,-0.2 -3,0 0.2,-1 0.5,-1.9 0.7,-2.9 0.2,-1 0.5,-1.9 0.8,-2.9 0.2,0.3 1.4,5.1 1.5,5.8 z"
   id="path44" />&#10;<path
   class="st1"
   d="m 94.4,80.7 c -1.9,2 -3.8,4 -5.7,6 -0.4,-0.4 -0.8,-0.8 -1.2,-1.1 1.6,-1.6 3.1,-3.3 4.7,-4.9 -1.2,-1.2 -2.5,-2.4 -3.7,-3.6 -1.2,1.3 -2.4,2.5 -3.7,3.8 0.6,0.6 1.3,1.3 1.9,1.9 -0.4,0.4 -0.8,0.6 -1.3,0.8 -0.9,-0.9 -1.8,-1.8 -2.8,-2.7 1.9,-2 3.8,-4 5.7,-6 2.1,2 4,3.9 6.1,5.8 z"
   id="path45" />&#10;<path
   class="st1"
   d="m 75.9,84.3 c 0.6,-0.2 1.1,-0.4 1.6,-0.7 0.3,0.4 0.6,0.8 0.8,1.1 -0.2,0.2 -3.7,1.8 -4.4,1.9 0.7,-3.9 1.4,-7.9 2.1,-11.8 0.2,0.1 0.2,0.2 0.3,0.2 2,1.9 3.9,3.7 5.9,5.6 0.2,0.2 0.3,0.3 0.3,0.6 -0.1,0.4 0.1,0.6 0.4,0.8 0.1,0.1 0.2,0.2 0.4,0.4 -0.4,0.2 -0.8,0.4 -1.2,0.6 -0.1,0 -0.2,0.1 -0.3,0.1 -0.9,0.4 -0.9,0.4 -1.7,-0.2 -0.1,-0.1 -0.3,-0.2 -0.4,-0.4 0.6,-0.3 1.1,-0.5 1.7,-0.8 -0.2,-0.3 -3.4,-3.4 -4.2,-3.9 -0.5,2.2 -0.9,4.3 -1.3,6.5 z"
   id="path46" />&#10;<path
   class="st1"
   d="m 88.1,78.4 c 1.3,1.2 1.5,3.1 0.6,4.6 -0.4,0.6 -0.9,1.1 -1.6,1.5 -2.6,1.4 -5.2,1.4 -7.8,0 -0.7,-0.4 -1.3,-1 -1.7,-1.7 -0.6,-1.1 -0.6,-2.3 0.1,-3.4 0.4,0.2 0.6,0.6 0.9,0.9 0.1,0.1 0.1,0.3 0,0.4 -0.1,0.9 0.2,1.6 0.7,2.2 0.5,0.6 1.1,0.9 1.9,1.2 1.4,0.5 2.8,0.4 4.1,-0.1 0.6,-0.2 1.1,-0.5 1.5,-0.9 1,-0.9 1.2,-2.1 0.6,-3.3 0,-0.1 -0.1,-0.2 -0.2,-0.3 0.3,-0.5 0.6,-0.8 0.9,-1.1 z"
   id="path47" />&#10;<path
   class="st1"
   d="m 79.1,77.6 c 2.3,-1.3 4.5,-1.4 7,-0.6 -0.3,0.4 -0.6,0.7 -0.9,1 -1.7,-0.5 -3.4,-0.4 -5,0.6 -0.4,-0.4 -0.7,-0.7 -1.1,-1 z"
   id="path48" />&#10;<path
   class="st1"
   d="m 88.4,78 c 1.1,1 2.1,2 3.1,3 -0.8,0.8 -1.6,1.6 -2.4,2.5 0,-0.2 0,-0.2 0,-0.3 0.2,-0.7 0.3,-1.3 0.3,-2 0,-0.9 -0.3,-1.8 -0.9,-2.5 -0.1,-0.1 -0.2,-0.2 -0.2,-0.3 0,-0.2 0.1,-0.2 0.1,-0.4 z"
   id="path49" />&#10;<path
   class="st1"
   d="m 84.2,78.9 c -0.6,0.6 -1.1,1.2 -1.7,1.8 -0.5,-0.5 -1,-0.9 -1.5,-1.4 0.5,-0.4 2.3,-0.7 3.2,-0.4 z"
   id="path50" />&#10;<path
   class="st1"
   d="m 85.4,81.2 c 0.5,-0.4 0.9,-0.8 1.3,-1.2 0.3,0.2 0.6,0.6 0.8,1 0.1,0.2 0.1,0.4 0,0.6 -0.1,0.4 -0.3,0.7 -0.6,1.1 -0.5,-0.6 -1,-1 -1.5,-1.5 z"
   id="path51" />&#10;<path
   class="st1"
   d="m 81.3,83.6 c 0.6,-0.3 1.3,-0.6 1.9,-0.8 0.1,0 0.3,0 0.3,0 0.3,0.3 0.6,0.7 1,1 -0.8,0.3 -2.6,0.2 -3.2,-0.2 z"
   id="path52" />&#10;<path
   class="st1"
   d="m 77.2,83 c -0.2,0.1 -0.5,0.2 -0.9,0.4 0.3,-1.6 0.6,-3.1 0.9,-4.6 0.1,0 0.1,0 0.2,0.1 0.1,0.1 0.1,0.1 0.2,0.2 -0.3,0.6 -0.6,1.2 -0.6,2 0,0.6 0.1,1.2 0.2,1.9 z"
   id="path53" />&#10;<path
   class="st1"
   d="m 80.2,81.8 c -0.3,0.1 -0.7,0.2 -1,0.4 -0.5,-0.7 -0.5,-1 -0.1,-1.5 0.4,0.4 0.8,0.7 1.1,1.1 z"
   id="path54" />&#10;<path
   class="st1"
   d="m 114.1,85.8 c 0,-0.4 0,-0.8 0,-1.2 0.5,0 0.9,0 1.4,0 0.4,0 0.5,0.3 0.5,0.6 0,0.3 -0.2,0.6 -0.5,0.6 -0.4,0.1 -0.9,0 -1.4,0 z"
   id="path55" />&#10;<path
   class="st1"
   d="m 114.1,83.5 c 0,-0.4 0,-0.6 0,-1 0.4,0 0.8,0 1.2,0 0.3,0 0.5,0.2 0.5,0.5 0,0.3 -0.2,0.5 -0.5,0.5 -0.3,0 -0.7,0 -1.2,0 z"
   id="path56" />&#10;<path
   class="st1"
   d="m 105.8,77.2 c 0.1,-0.4 0.2,-0.8 0.3,-1.2 0.1,0 0.1,-0.1 0.2,-0.1 0.4,0 0.6,0.1 0.7,0.3 0.1,0.2 0,0.6 -0.3,0.8 -0.3,0.2 -0.5,0.3 -0.9,0.2 z"
   id="path57" />&#10;<path
   class="st1"
   d="m 119.4,84.6 c 0.2,-0.5 0.3,-0.9 0.5,-1.4 0,0 0.1,0 0.1,0 0.1,0.4 0.3,0.9 0.5,1.4 -0.4,0 -0.7,0 -1.1,0 z"
   id="path58" />&#10;<path
   class="st1"
   d="m 108.1,82.9 c 0.4,0.1 0.7,0.1 1.1,0.2 0,0.4 0,0.7 0,1.1 -0.4,0.1 -0.8,0 -1.3,-0.1 0,-0.4 0.1,-0.8 0.2,-1.2 z"
   id="path59" />&#10;<path
   class="st1"
   d="m 110.7,84.1 c -0.4,0.1 -0.8,0.1 -1.2,0.2 0,-0.4 0,-0.8 0,-1.2 0.2,0 0.3,-0.1 0.5,-0.1 0.2,0 0.3,-0.1 0.5,-0.1 0.2,0.4 0.2,0.8 0.2,1.2 z"
   id="path60" />&#10;<path
   class="st1"
   d="m 109.2,84.6 c 0,0.2 0,0.4 0,0.6 0,0.1 0,0.3 0,0.5 -0.3,0.1 -0.6,0 -0.9,0 -0.1,0 -0.2,-0.2 -0.3,-0.3 -0.1,-0.3 -0.1,-0.5 -0.1,-0.9 0.3,0 0.5,0.1 0.7,0.1 0.1,-0.1 0.3,0 0.6,0 z"
   id="path61" />&#10;<path
   class="st1"
   d="m 109.5,85.7 c 0,-0.3 0,-0.7 0,-1.1 0.4,-0.1 0.8,-0.1 1.2,-0.2 0,0.1 0,0.1 0,0.2 -0.1,1 0,1.1 -1.2,1.1 z"
   id="path62" />&#10;<path
   class="st1"
   d="m 111.9,83.9 c 0.2,1 0,1.2 -1,1.5 0,-0.3 0.1,-0.6 0.1,-0.9 0,-0.1 0.1,-0.2 0.1,-0.2 0.3,-0.2 0.6,-0.3 0.8,-0.4 z"
   id="path63" />&#10;<path
   class="st1"
   d="m 107.7,85.4 c -1,-0.3 -1.2,-0.5 -1,-1.5 0.3,0.1 0.6,0.3 0.9,0.4 0,0.4 0,0.7 0.1,1.1 z"
   id="path64" />&#10;<path
   class="st1"
   d="m 111.3,82.5 c 0.3,0.3 0.5,0.6 0.6,1.1 -0.3,0.1 -0.5,0.3 -0.8,0.5 -0.1,-0.4 -0.1,-0.8 -0.2,-1.2 0.1,-0.2 0.3,-0.3 0.4,-0.4 z"
   id="path65" />&#10;<path
   class="st1"
   d="m 107.5,84 c -0.3,-0.2 -0.6,-0.3 -0.8,-0.4 0.1,-0.4 0.3,-0.8 0.6,-1.1 0.2,0.1 0.3,0.2 0.5,0.3 -0.1,0.4 -0.2,0.7 -0.3,1.2 z"
   id="path66" />&#10;<path
   class="st1"
   d="m 109.1,81.6 c 0,0.4 0,0.8 0,1.1 -0.3,0 -0.6,0 -0.9,-0.2 0.2,-0.4 0.4,-0.7 0.9,-0.9 z"
   id="path67" />&#10;<path
   class="st1"
   d="m 110.4,82.6 c -0.4,0.1 -0.6,0.1 -0.9,0.2 0,-0.4 0,-0.8 0,-1.2 0.5,0.2 0.7,0.5 0.9,1 z"
   id="path68" />&#10;<path
   class="st1"
   d="m 109.1,86.9 c -0.5,-0.1 -0.7,-0.5 -0.9,-0.9 0.3,0 0.6,0.1 0.9,0.1 0,0.2 0,0.5 0,0.8 z"
   id="path69" />&#10;<path
   class="st1"
   d="m 109.5,86.8 c 0,-0.3 0,-0.5 0,-0.8 0.3,0 0.6,-0.1 0.9,-0.1 -0.2,0.6 -0.4,0.8 -0.9,0.9 z"
   id="path70" />&#10;<path
   class="st1"
   d="m 107,85.5 c 0.7,0.1 1,0.5 1.2,1.1 -0.6,-0.2 -0.9,-0.5 -1.2,-1.1 z"
   id="path71" />&#10;<path
   class="st1"
   d="m 110.4,86.7 c 0.2,-0.6 0.5,-1.1 1.2,-1.1 -0.3,0.5 -0.6,0.8 -1.2,1.1 z"
   id="path72" />&#10;<path
   class="st1"
   d="m 107.5,82.2 c 0.3,-0.2 0.5,-0.3 0.7,-0.4 0,0 0,0 0.1,0.1 -0.1,0.2 -0.2,0.4 -0.4,0.6 -0.1,-0.1 -0.2,-0.2 -0.4,-0.3 z"
   id="path73" />&#10;<path
   class="st1"
   d="m 110.5,81.8 c 0.2,0.1 0.4,0.3 0.6,0.4 -0.2,0.1 -0.3,0.2 -0.4,0.3 -0.1,-0.3 -0.2,-0.4 -0.2,-0.7 -0.1,0 -0.1,0 0,0 z"
   id="path74" />&#10;</svg>
